<?xml version="1.0" encoding="utf-8"?>
<!-- Generator: Adobe Illustrator 22.1.0, SVG Export Plug-In . SVG Version: 6.00 Build 0)  -->
<svg version="1.1" id="Layer_1" xmlns="http://www.w3.org/2000/svg" xmlns:xlink="http://www.w3.org/1999/xlink" x="0px" y="0px"
	 viewBox="0 0 1080 1080" style="enable-background:new 0 0 1080 1080;" xml:space="preserve">
<style type="text/css">
	.st0{fill:#312F2F;}
	.st1{fill:#51FFC0;}
</style>
<path class="st0" d="M1036,1069H44c-18.2,0-33-14.8-33-33V44c0-18.2,14.8-33,33-33h992c18.2,0,33,14.8,33,33v992
	C1069,1054.2,1054.2,1069,1036,1069z"/>
<path class="st1" d="M404.5,675.9"/>
<g>
	<path class="st1" d="M259.3,709.9L361,651.7c26.2,48.8,71.4,84.1,123.8,90.4c51.6,6.2,91.2-15.2,97.6-57.4
		c4.7-31-20.7-50.2-59.9-80.8l-52.2-41c-49.8-39.7-79.2-86.1-68.5-157.1C417,305.3,522.5,243.3,642.5,249.6
		c21.3,1.1,46.1,6.7,75.3,17C743,283,762,287,820.8,378.8c-7.6-0.9-98.5,54.8-98.5,54.8s-57.5-73.2-101.5-78.4
		c-50-6-81.6,20.4-86.6,53.8c-4.5,30.1,21.6,48.1,64.7,82.3l54.7,42.5c53.3,40.8,73.7,81.5,63.5,149.2
		c-16,106.4-118.8,179.5-258,162.9C380.2,836.2,306.8,795.4,259.3,709.9z"/>
</g>
</svg>
